<svg width="21" height="22" viewBox="0 0 21 22" fill="none" xmlns="http://www.w3.org/2000/svg">
<g clip-path="url(#clip0_2_4939)">
<path d="M1.81751 16.9211L9.50305 21.2766C10.0434 21.5826 10.5838 21.5826 11.1241 21.2766L18.7999 16.9211C19.2491 16.6673 19.5893 16.3743 19.8204 16.0422C20.0515 15.7102 20.1671 15.1959 20.1671 14.4992V6.76489C20.1671 6.25708 20.0711 5.83553 19.879 5.50025C19.687 5.16496 19.3859 4.88013 18.9757 4.64575L12.0616 0.71997C11.4757 0.381429 10.893 0.212158 10.3136 0.212158C9.73417 0.212158 9.14823 0.381429 8.55579 0.71997L1.65149 4.64575C1.23482 4.88013 0.930461 5.16496 0.738403 5.50025C0.546346 5.83553 0.450317 6.25708 0.450317 6.76489V14.4992C0.450317 15.1959 0.567505 15.7102 0.801879 16.0422C1.03625 16.3743 1.3748 16.6673 1.81751 16.9211ZM2.69641 15.6321C2.40995 15.4759 2.21139 15.3066 2.10071 15.1242C1.99003 14.942 1.9347 14.7174 1.9347 14.4504V7.07739L9.54212 11.4231V19.5285L2.69641 15.6321ZM17.9308 15.6321L11.0753 19.5285V11.4231L18.6827 7.07739V14.4504C18.6827 14.7174 18.6274 14.942 18.5167 15.1242C18.4061 15.3066 18.2108 15.4759 17.9308 15.6321ZM10.3136 10.0559L2.77454 5.78833L9.21009 2.11646C9.95227 1.69328 10.688 1.69328 11.4171 2.11646L17.8526 5.78833L10.3136 10.0559Z" fill="black" fill-opacity="0.85"/>
</g>
<defs>
<clipPath id="clip0_2_4939">
<rect width="19.7168" height="21.4844" fill="white" transform="translate(0.450317 0.0217285)"/>
</clipPath>
</defs>
</svg>
